<?xml version="1.0" encoding="UTF-8"?>
<svg id="Curation" xmlns="http://www.w3.org/2000/svg" viewBox="0 0 309.89 173.43">
  <defs>
    <style>
      .cls-1 {
        fill: #00a8cd;
      }

      .cls-2 {
        stroke: #fff;
        stroke-dasharray: 1 1;
      }

      .cls-2, .cls-3 {
        fill: none;
        stroke-miterlimit: 10;
      }

      .cls-4 {
        fill: #2160ad;
      }

      .cls-5 {
        fill: #231f20;
      }

      .cls-6 {
        fill: #78be43;
      }

      .cls-3 {
        stroke: #231f20;
        stroke-dasharray: 5 5;
      }
    </style>
  </defs>
  <rect class="cls-4" x="178.73" y="48.51" width="63.38" height="63.38"/>
  <rect class="cls-2" x="183.84" y="53.51" width="11.01" height="11.01"/>
  <rect class="cls-2" x="183.84" y="74.69" width="11.01" height="11.01"/>
  <rect class="cls-2" x="183.84" y="95.88" width="11.01" height="11.01"/>
  <rect class="cls-2" x="204.91" y="53.51" width="11.01" height="11.01"/>
  <rect class="cls-2" x="204.91" y="74.69" width="11.01" height="11.01"/>
  <rect class="cls-2" x="204.91" y="95.88" width="11.01" height="11.01"/>
  <rect class="cls-2" x="225.98" y="53.51" width="11.01" height="11.01"/>
  <rect class="cls-2" x="225.98" y="74.69" width="11.01" height="11.01"/>
  <rect class="cls-2" x="225.98" y="95.88" width="11.01" height="11.01"/>
  <rect class="cls-4" x="75.07" y="98.74" width="13.06" height="13.06"/>
  <rect class="cls-6" x="109.24" y="75.16" width="13.06" height="13.06"/>
  <rect class="cls-1" x="75.26" y="48.42" width="13.06" height="13.06"/>
  <g>
    <path class="cls-3" d="M210.02,43c-4.91-11.4-23.95-21.56-40.67-24.97-38.51-7.87-77.21,10.84-87.57,25.98"/>
    <polygon class="cls-5" points="212.15 38.25 211.19 37.96 209.77 42.68 205.16 40.92 204.81 41.86 210.42 44 212.15 38.25"/>
  </g>
  <g>
    <path class="cls-3" d="M226.59,117.86c-38.16,51.42-118.85,62.6-144.8-2.89"/>
    <polygon class="cls-5" points="221.31 117.97 221.47 118.96 226.34 118.14 226.79 123.05 227.79 122.96 227.23 116.98 221.31 117.97"/>
  </g>
  <g>
    <path class="cls-3" d="M186.68,118.15c-22.45,34.93-61.97,12.96-72.12-26.61"/>
    <polygon class="cls-5" points="181.42 118.63 181.65 119.6 186.45 118.45 187.25 123.32 188.23 123.15 187.26 117.23 181.42 118.63"/>
  </g>
</svg>