<svg xmlns="http://www.w3.org/2000/svg" viewBox="0 0 400 300" width="400" height="300">
  <defs>
    <linearGradient id="grad6" x1="0%" y1="0%" x2="100%" y2="100%">
      <stop offset="0%" style="stop-color:#ff9a56;stop-opacity:1" />
      <stop offset="100%" style="stop-color:#ff6a88;stop-opacity:1" />
    </linearGradient>
  </defs>
  <rect width="400" height="300" fill="url(#grad6)"/>
  <rect x="70" y="70" width="45" height="45" rx="4" fill="#fff" opacity="0.3"/>
  <rect x="125" y="70" width="45" height="45" rx="4" fill="#fff" opacity="0.3"/>
  <rect x="180" y="70" width="45" height="45" rx="4" fill="#fff" opacity="0.3"/>
  <rect x="235" y="70" width="45" height="45" rx="4" fill="#fff" opacity="0.3"/>
  <rect x="290" y="70" width="45" height="45" rx="4" fill="#fff" opacity="0.3"/>
  <rect x="70" y="130" width="45" height="45" rx="4" fill="#fff" opacity="0.3"/>
  <rect x="125" y="130" width="45" height="45" rx="4" fill="#fff" opacity="0.3"/>
  <rect x="180" y="130" width="45" height="45" rx="4" fill="#fff" opacity="0.3"/>
  <rect x="235" y="130" width="45" height="45" rx="4" fill="#fff" opacity="0.3"/>
  <rect x="290" y="130" width="45" height="45" rx="4" fill="#fff" opacity="0.3"/>
  <g opacity="0.4">
    <rect x="70" y="200" width="265" height="50" rx="8" fill="none" stroke="#fff" stroke-width="2"/>
    <line x1="90" y1="200" x2="90" y2="250"/>
    <line x1="150" y1="200" x2="150" y2="250"/>
    <line x1="210" y1="200" x2="210" y2="250"/>
    <line x1="270" y1="200" x2="270" y2="250"/>
  </g>
  <text x="200" y="275" font-size="16" fill="white" text-anchor="middle" font-weight="300">Modular Assembly</text>
</svg>
